<?xml version="1.0" encoding="UTF-8" standalone="no"?>
<!-- Created with Inkscape (http://www.inkscape.org/) -->

<svg
   xmlns:dc="http://purl.org/dc/elements/1.1/"
   xmlns:cc="http://creativecommons.org/ns#"
   xmlns:rdf="http://www.w3.org/1999/02/22-rdf-syntax-ns#"
   xmlns:svg="http://www.w3.org/2000/svg"
   xmlns="http://www.w3.org/2000/svg"
   xmlns:sodipodi="http://sodipodi.sourceforge.net/DTD/sodipodi-0.dtd"
   xmlns:inkscape="http://www.inkscape.org/namespaces/inkscape"
   width="210mm"
   height="297mm"
   viewBox="0 0 210 297"
   version="1.1"
   id="svg8"
   inkscape:version="0.92.4 (5da689c313, 2019-01-14)"
   sodipodi:docname="solidify1.svg">
  <defs
     id="defs2" />
  <sodipodi:namedview
     id="base"
     pagecolor="#ffffff"
     bordercolor="#666666"
     borderopacity="1.0"
     inkscape:pageopacity="0.0"
     inkscape:pageshadow="2"
     inkscape:zoom="0.7"
     inkscape:cx="-182.92689"
     inkscape:cy="309.7093"
     inkscape:document-units="mm"
     inkscape:current-layer="g21"
     showgrid="false"
     inkscape:window-width="1920"
     inkscape:window-height="1016"
     inkscape:window-x="1280"
     inkscape:window-y="27"
     inkscape:window-maximized="1" />
  <metadata
     id="metadata5">
    <rdf:RDF>
      <cc:Work
         rdf:about="">
        <dc:format>image/svg+xml</dc:format>
        <dc:type
           rdf:resource="http://purl.org/dc/dcmitype/StillImage" />
        <dc:title />
      </cc:Work>
    </rdf:RDF>
  </metadata>
  <g
     inkscape:label="Capa 1"
     inkscape:groupmode="layer"
     id="layer1">
    <g
       id="g21"
       transform="translate(-15.119048,118.30655)">
      <path
         style="fill:#9ff3f3;stroke-width:0.26458335"
         d="m 97.404466,145.60663 c -5.696644,-0.43985 -7.290661,-1.0275 -8.359514,-3.08181 -1.193054,-2.29301 0.560242,-4.45542 6.705868,-8.27061 1.346068,-0.83564 2.447396,-1.58323 2.447396,-1.66133 0,-0.0781 -1.002879,-0.0606 -2.228617,0.0388 -2.812011,0.22817 -11.430914,1.95393 -23.171385,4.63962 -13.504954,3.08932 -13.172432,3.03089 -17.330209,3.04498 -5.114201,0.0173 -6.622879,-0.58474 -7.455568,-2.9753 -1.107058,-3.17823 0.764652,-5.70498 6.132651,-8.27888 1.455209,-0.69776 3.241146,-1.41099 3.96875,-1.58496 1.611026,-0.38519 2.622392,-0.97057 3.822715,-2.21262 0.657773,-0.68064 0.83193,-1.02438 0.624234,-1.23208 -0.158435,-0.15843 -1.700063,-0.51503 -3.425839,-0.79245 -7.850185,-1.26188 -8.931192,-1.59526 -10.248245,-3.16049 -0.554819,-0.65936 -0.694376,-1.10132 -0.692932,-2.19441 0.0017,-1.25176 0.07516,-1.41643 0.859895,-1.92645 1.86476,-1.21194 2.899932,-1.73139 7.869547,-3.94897 7.976237,-3.55921 11.112501,-5.23054 11.112501,-5.9219 0,-0.25215 -1.141252,-0.68219 -5.259886,-1.982 -3.638801,-1.14837 -4.643444,-1.73465 -5.351798,-3.12314 -0.889843,-1.744234 -0.453142,-2.35649 2.779191,-3.896429 4.621776,-2.201894 9.32161,-3.555934 15.50541,-4.467169 l 3.307292,-0.487355 -0.03722,-1.698299 c -0.02047,-0.934064 -0.169836,-3.781894 -0.331919,-6.328509 -0.387057,-6.081313 -0.399273,-18.612948 -0.02076,-21.298958 0.57218,-4.060336 1.494626,-5.106097 5.914771,-6.705494 7.547346,-2.730948 23.931365,-4.269021 33.104295,-3.107713 3.51149,0.44456 3.91159,0.590869 6.46443,2.363911 2.42175,1.681995 4.60395,2.940161 11.52724,6.646147 6.47598,3.46654 10.30277,5.981711 11.28597,7.417732 0.61799,0.902617 0.80349,1.642271 1.26074,5.027084 0.29487,2.182812 0.7229,5.87375 0.95118,8.202083 0.22827,2.328333 0.49932,4.866495 0.60233,5.640356 l 0.18728,1.407022 15.34584,-0.02373 c 15.77939,-0.02439 23.2729,0.213567 29.50104,0.936856 6.89082,0.800248 9.00445,1.527378 9.71795,3.343163 0.61991,1.577629 0.1008,2.403534 -2.19726,3.495813 -5.89956,2.804089 -18.70034,5.087199 -31.86236,5.682889 -4.22385,0.19116 -5.16403,0.31524 -6.85899,0.9052 -1.08031,0.37603 -2.13445,0.85393 -2.34253,1.06202 -0.32805,0.32805 -0.19009,0.44859 1.03816,0.90702 3.50236,1.30724 14.1578,2.79516 22.3508,3.12106 6.56955,0.26132 8.11841,0.71057 9.39616,2.72538 1.24741,1.96696 0.91075,3.46375 -1.15605,5.13981 -1.34308,1.08915 -2.64573,1.75964 -4.94796,2.54676 -4.91446,1.68024 -10.45063,2.50918 -24.88792,3.72651 -11.3403,0.9562 -15.17509,2.31511 -16.11236,5.70963 -0.62302,2.2564 0.58043,3.75411 4.47069,5.56385 4.70359,2.1881 5.40567,2.59817 6.01559,3.51358 0.81843,1.22837 0.75884,1.96215 -0.2267,2.79142 -1.52772,1.28549 -4.2324,2.08121 -10.28681,3.02641 -11.67575,1.82277 -36.89347,2.70754 -49.47708,1.73591 z m 52.122924,-23.62272 c 4.29187,-1.38814 5.57322,-1.69752 10.9802,-2.6511 6.46558,-1.14028 10.13929,-1.72187 18.6485,-2.95225 4.1448,-0.59931 7.5934,-1.14706 7.66356,-1.21722 0.27756,-0.27755 -0.49236,-1.06501 -1.72819,-1.76756 -1.28447,-0.73021 -1.34463,-0.73782 -4.87241,-0.61637 -3.91258,0.13469 -7.84271,0.84902 -16.19832,2.94417 -10.40969,2.6102 -22.16626,6.30694 -22.16626,6.96995 0,0.97789 3.43874,0.65987 7.67292,-0.70962 z m -40.89868,-14.52722 c 0.31376,-9.664035 1.0345,-15.905117 2.08563,-18.060114 1.01535,-2.081628 2.93174,-2.709794 9.65604,-3.165131 4.43831,-0.30054 6.36421,-0.603112 8.72822,-1.371264 2.33051,-0.757272 2.60989,-1.254456 1.83256,-3.26127 -0.32979,-0.851434 -0.89424,-1.767523 -1.25431,-2.035752 -1.18253,-0.880904 -4.17705,-1.297291 -9.34692,-1.299685 -8.178,-0.0038 -13.3878,1.358695 -14.54855,3.804779 -1.64197,3.460205 -1.65447,17.44417 -0.0222,24.863417 0.44711,2.03232 2.17096,6.07969 2.50225,5.87495 0.10866,-0.0671 0.27394,-2.47462 0.36729,-5.34993 z M 72.136756,97.438587 c 6.28899,-1.263788 7.125693,-1.503585 7.235481,-2.073672 0.08384,-0.435367 -0.05015,-0.462362 -1.454898,-0.293098 -2.538577,0.305885 -7.469529,1.424419 -10.013917,2.271552 -4.852391,1.615564 -3.485383,1.646309 4.233334,0.09522 z M 84.9538,84.066796 c 0.01963,-3.285291 0.487972,-7.840917 0.893512,-8.691357 0.448482,-0.94049 1.567323,-1.006289 2.783075,-0.163671 0.532879,0.369329 1.683245,1.281347 2.55637,2.026707 1.645793,1.404962 3.988226,2.890879 4.564063,2.895203 0.452101,0.0034 0.417491,-1.239669 -0.07413,-2.662365 -0.703985,-2.037266 -5.121347,-6.617866 -8.662346,-8.982454 -1.977707,-1.320661 -2.80248,-1.557922 -3.256632,-0.93683 -0.542586,0.742029 -0.728747,4.136241 -0.552336,10.070589 0.163597,5.503267 0.458698,8.39638 1.039037,10.186458 l 0.300221,0.926042 0.196958,-1.058333 c 0.108326,-0.582084 0.203819,-2.206578 0.212206,-3.609989 z"
         id="path35"
         inkscape:connector-curvature="0"
         inkscape:export-xdpi="168.96001"
         inkscape:export-ydpi="168.96001" />
      <path
         style="fill:#ffd000;fill-opacity:1;stroke-width:0.26458335"
         d="m 97.536758,145.62656 c -5.445687,-0.45967 -7.259125,-1.08212 -8.346018,-2.86467 -0.283551,-0.46504 -0.515546,-1.14318 -0.515546,-1.50698 0,-0.79456 0.89204,-2.3348 1.48371,-2.56185 0.233378,-0.0896 1.410808,-0.88923 2.616512,-1.77705 1.205701,-0.88782 3.114397,-2.18686 4.241541,-2.88674 2.770783,-1.72047 2.463962,-1.96572 -1.742646,-1.39295 -4.202915,0.57226 -11.241359,2.0205 -23.366763,4.80795 -5.391706,1.23947 -10.998644,2.43672 -12.459864,2.66054 -2.920771,0.4474 -6.971165,0.34813 -8.705136,-0.21334 -2.231771,-0.72267 -3.445017,-2.93003 -2.861381,-5.20596 0.714361,-2.7857 5.877037,-6.14796 10.407774,-6.7782 1.047067,-0.14565 1.47683,-0.41048 2.844271,-1.75269 0.885959,-0.86961 1.610835,-1.70027 1.610835,-1.84592 0,-0.45082 -1.265085,-0.78046 -5.538198,-1.44307 -2.265502,-0.35129 -4.676018,-0.80802 -5.356703,-1.01493 -2.435923,-0.74049 -3.657183,-2.11533 -3.657183,-4.1171 0,-1.64147 0.351895,-1.85893 10.132565,-6.26164 6.352857,-2.8597 9.711186,-4.67307 9.711186,-5.24369 0,-0.44757 -0.56786,-0.69164 -4.368822,-1.87781 -4.534489,-1.41508 -5.607923,-2.01159 -6.255884,-3.47641 -0.488761,-1.104928 -0.496379,-1.238506 -0.104724,-1.836245 0.459733,-0.701643 2.923544,-2.028528 6.159817,-3.317369 2.795924,-1.113473 8.263742,-2.463009 12.363175,-3.051411 l 3.389344,-0.486481 -0.158967,-2.25288 c -0.597543,-8.468463 -0.743818,-13.061483 -0.630105,-19.78537 0.126659,-7.489431 0.286494,-8.993465 1.148863,-10.810775 1.365846,-2.878305 10.408254,-5.439774 22.323969,-6.323774 9.51363,-0.705795 17.35265,-0.338202 19.83914,0.93031 0.65003,0.331622 2.07785,1.221406 3.17293,1.977298 2.34959,1.62183 2.77127,1.864387 9.66398,5.558911 9.26167,4.964299 12.56772,7.280727 12.94288,9.068577 0.36405,1.734879 1.2072,8.21514 1.59219,12.237152 0.22983,2.401094 0.48136,4.960937 0.55895,5.688542 l 0.14107,1.322916 17.78245,0.0062 c 17.90096,0.0062 22.12689,0.163822 28.96324,1.079907 5.61564,0.752507 7.31504,1.429489 7.9483,3.166317 0.35947,0.98588 0.35245,1.13724 -0.0835,1.802604 -2.02059,3.083819 -18.54019,6.619721 -33.59765,7.191341 -2.64985,0.10059 -5.09583,0.33467 -5.95313,0.56971 -1.89227,0.51879 -3.96875,1.40186 -3.96875,1.68781 0,0.95677 6.17343,2.38822 15.47813,3.58895 4.68475,0.60455 4.87784,0.6186 10.09299,0.73457 5.08628,0.1131 5.73177,0.2551 6.87554,1.51254 2.47705,2.72322 1.44019,5.18867 -3.09002,7.34744 -4.75228,2.26459 -11.40586,3.44806 -26.18164,4.65693 -6.41479,0.52482 -8.85699,0.83767 -11.18301,1.43257 -4.42044,1.13056 -6.27949,2.97916 -6.27949,6.24421 0,0.89348 0.16563,1.2317 0.99219,2.02595 0.90825,0.87276 3.86617,2.50368 6.15156,3.39181 0.50932,0.19793 1.35944,0.62831 1.88916,0.95641 0.52972,0.32809 1.02216,0.53749 1.09432,0.46533 0.2227,-0.2227 1.24985,1.26051 1.24985,1.80479 0,0.80157 -1.31352,1.92011 -2.99253,2.5483 -3.89375,1.45684 -15.33957,3.03131 -25.45018,3.50087 -4.35269,-1.84694 -20.76521,-2.27378 -32.014582,0.11853 z m 52.255212,-23.11414 c 1.81901,-0.59299 4.39941,-1.31971 5.73422,-1.61494 3.62422,-0.8016 13.7113,-2.48066 23.10294,-3.84565 5.21008,-0.75724 8.46646,-1.34548 8.69094,-1.56996 0.84669,-0.84669 -1.50198,-2.78217 -4.0748,-3.35794 -2.40615,-0.53848 -8.71768,0.42015 -18.50434,2.81055 -7.97818,1.94867 -19.77698,5.50789 -22.55573,6.80415 -1.20945,0.56419 -1.47457,1.28031 -0.66146,1.78666 0.96244,0.59934 4.74358,0.13614 8.26823,-1.01287 z m -40.64691,-11.88303 c 0.40867,-11.66494 1.07532,-18.466714 2.02201,-20.630445 0.52022,-1.189008 1.60239,-2.02362 3.17073,-2.445385 0.50932,-0.136969 3.18823,-0.433504 5.95313,-0.658963 5.65748,-0.461336 7.99724,-0.887921 10.06675,-1.835375 1.69733,-0.77706 1.95334,-1.401532 1.33516,-3.256693 -0.71799,-2.154693 -1.3028,-2.879153 -2.71167,-3.359202 -4.41392,-1.503974 -16.23904,-1.070923 -20.60838,0.754707 -3.74607,1.565209 -4.4628,3.893373 -4.44285,14.431876 0.0172,9.08578 0.81385,13.90912 3.11691,18.8712 1.71541,3.69595 1.90921,3.52307 2.09821,-1.87172 z M 67.638839,98.91266 c 2.942657,-0.496091 11.788916,-2.359385 11.998664,-2.527284 0.05083,-0.04068 0.01143,-0.553344 -0.08756,-1.13924 -0.208092,-1.231694 0.482899,-1.23031 -5.720567,-0.01146 -5.317577,1.044774 -11.085328,3.103928 -11.085328,3.957579 0,0.390888 1.387994,0.311603 4.894792,-0.279598 z M 85.535873,86.010005 c 0.305795,-9.854784 0.613476,-11.414849 2.096736,-10.631326 0.354052,0.187025 1.807258,1.273379 3.229346,2.414118 2.858251,2.292769 4.436017,3.210608 5.306052,3.086707 0.521491,-0.07427 0.568055,-0.217305 0.500369,-1.537095 -0.118816,-2.316794 -1.105291,-3.988206 -4.143973,-7.021252 -4.091138,-4.083551 -7.341473,-6.21274 -8.697238,-5.697279 -0.839319,0.319109 -0.947275,0.660691 -1.298705,4.109325 -0.223943,2.197602 -0.219231,4.247547 0.01905,8.280337 0.327983,5.551123 0.741379,8.376912 1.661123,11.354695 0.866958,2.806885 1.131909,1.936874 1.327246,-4.35823 z"
         id="path33"
         inkscape:connector-curvature="0"
         sodipodi:nodetypes="ccsccscsccsscsccssssccsscsssscsscccccscccssssssscscccssccccccsscscccscsccssssssccccsccccscsssscscc"
         inkscape:export-xdpi="168.96001"
         inkscape:export-ydpi="168.96001" />
      <path
         style="fill:#fde348;stroke-width:0.26458335;fill-opacity:1"
         d="m 97.536758,145.63105 c -4.79914,-0.4 -6.826005,-0.98679 -7.926598,-2.29477 -1.165651,-1.38529 -1.206563,-2.6538 -0.129741,-4.02275 0.739873,-0.9406 1.511912,-0.99481 0.901568,-0.0633 -0.639768,0.97641 -0.580276,2.26572 0.131128,2.84178 0.909817,0.73672 1.237652,0.58081 0.445137,-0.21171 -0.797885,-0.79789 -0.849407,-1.15172 -0.317473,-2.18037 0.567007,-1.09647 3.301267,-3.13796 8.152749,-6.08711 0.545704,-0.33173 0.992188,-0.69924 0.992188,-0.8167 0,-0.4728 -1.931181,-0.5235 -4.788112,-0.1257 -4.048996,0.56378 -11.275365,2.05783 -23.090056,4.77386 -5.391706,1.23947 -10.998644,2.43672 -12.459864,2.66054 -2.920771,0.4474 -6.971165,0.34813 -8.705136,-0.21334 -2.231771,-0.72267 -3.445017,-2.93003 -2.861381,-5.20596 0.575234,-2.24317 3.979142,-4.87202 8.135617,-6.28318 1.687455,-0.57291 2.410794,-0.34427 0.840283,0.2656 -0.691224,0.26842 -1.25677,0.59093 -1.25677,0.71668 0,0.32441 0.08949,0.30405 1.902957,-0.43282 0.895322,-0.36381 1.815691,-0.66329 2.045263,-0.66551 0.229573,-0.002 0.595999,-0.12129 0.81428,-0.26459 0.352778,-0.23158 0.352778,-0.28894 0,-0.51619 -0.324737,-0.20919 -0.144392,-0.49667 0.992187,-1.58156 0.763985,-0.72924 1.389063,-1.45057 1.389063,-1.60297 0,-0.46359 -1.23449,-0.78799 -5.538198,-1.45534 -2.265502,-0.35129 -4.676018,-0.80802 -5.356703,-1.01493 -2.435923,-0.74049 -3.657183,-2.11533 -3.657183,-4.1171 0,-1.64147 0.351895,-1.85893 10.132565,-6.26164 6.352857,-2.8597 9.711186,-4.67307 9.711186,-5.24369 0,-0.44757 -0.56786,-0.69164 -4.368822,-1.87781 -4.534489,-1.41508 -5.607923,-2.01159 -6.255884,-3.47641 -0.488761,-1.104928 -0.496379,-1.238506 -0.104724,-1.836245 0.459733,-0.701643 2.923544,-2.028528 6.159817,-3.317369 2.795924,-1.113473 8.263742,-2.463009 12.363175,-3.051411 l 3.389344,-0.486481 -0.158967,-2.25288 c -0.597543,-8.468463 -0.743818,-13.061483 -0.630105,-19.78537 0.126659,-7.489431 0.286494,-8.993465 1.148863,-10.810775 1.365846,-2.878305 10.408254,-5.439774 22.323969,-6.323774 9.51363,-0.705795 17.35265,-0.338202 19.83914,0.93031 0.65003,0.331622 2.07785,1.221406 3.17293,1.977298 2.34959,1.62183 2.77127,1.864387 9.66398,5.558911 9.26167,4.964299 12.56772,7.280727 12.94288,9.068577 0.36405,1.734879 1.2072,8.21514 1.59219,12.237152 0.22983,2.401094 0.48136,4.960937 0.55895,5.688542 l 0.14107,1.322916 17.78245,0.0062 c 17.90096,0.0062 22.12689,0.163822 28.96324,1.079907 5.61564,0.752507 7.31504,1.429489 7.9483,3.166317 0.35947,0.98588 0.35245,1.13724 -0.0835,1.802604 -2.02059,3.083819 -18.54019,6.619721 -33.59765,7.191341 -2.64985,0.10059 -5.09583,0.33467 -5.95313,0.56971 -1.94699,0.53379 -3.96875,1.40464 -3.96875,1.70948 0,0.36638 2.05109,1.20651 4.11298,1.68469 2.50491,0.58093 9.08726,1.64068 11.56554,1.86204 1.68942,0.1509 1.99961,0.24705 1.75355,0.54353 -0.24487,0.29505 -0.0777,0.3602 0.92408,0.3602 0.67266,0 1.22302,0.10479 1.22302,0.23286 0,0.12807 1.8268,0.24038 4.05956,0.24958 3.77595,0.0156 4.1681,0.0647 5.6134,0.70389 1.7692,0.78243 1.95903,0.99369 1.96465,2.1865 0.005,1.10697 -1.19774,2.38421 -3.17095,3.36674 -1.50128,0.74753 -6.12597,2.24791 -6.94531,2.25325 -0.25466,0.002 -0.46302,0.1301 -0.46302,0.28543 0,0.17307 0.2305,0.20847 0.59531,0.0914 0.32743,-0.10503 0.9525,-0.28493 1.38907,-0.39978 0.43656,-0.11485 1.21047,-0.31975 1.71979,-0.45534 2.69536,-0.71752 5.89788,-2.43236 6.8842,-3.68627 1.12177,-1.4261 0.23746,-3.44303 -1.72221,-3.92801 -0.43512,-0.10768 -0.9415,-0.34616 -1.12529,-0.52995 -0.51095,-0.51096 0.47612,-0.72255 1.75909,-0.37708 2.13182,0.57404 3.93771,2.91341 3.60756,4.67327 -0.25585,1.3638 -1.85466,2.83745 -4.38838,4.04484 -4.75228,2.26459 -11.40586,3.44806 -26.18164,4.65693 -6.41479,0.52482 -8.85699,0.83767 -11.18301,1.43257 -4.36936,1.11749 -6.27949,2.98628 -6.27949,6.14357 0,0.53683 -0.14805,1.02584 -0.33073,1.09241 -0.21455,0.0782 -0.005,0.47057 0.59531,1.11701 0.65135,0.70088 2.12291,1.57509 4.96094,2.94713 2.21919,1.07287 4.0349,2.09051 4.0349,2.26143 0,0.17093 -0.25888,0.58633 -0.57529,0.92314 -0.65611,0.69839 -0.35908,0.81371 0.51641,0.20048 0.32343,-0.22653 0.58804,-0.63622 0.58804,-0.91042 0,-0.80751 0.44664,-0.85046 1.03715,-0.0998 1.64955,2.09707 -0.62841,3.65735 -7.31676,5.01159 -4.54901,0.92107 -13.85118,1.93878 -20.5756,2.25108 -9.66596,0.44892 -27.29198,0.51665 -32.014582,0.12302 z m 3.704162,-1.73031 c 0.10284,-0.16639 -0.45597,-0.25768 -1.505734,-0.24598 -1.177658,0.0131 -1.51342,0.0856 -1.140095,0.24598 0.740172,0.31807 2.449259,0.31807 2.645829,0 z m 8.2808,0.0681 c -1.12088,-0.0495 -3.02588,-0.0497 -4.23334,-5.3e-4 -1.20745,0.0491 -0.29037,0.0896 2.03796,0.09 2.32833,2.6e-4 3.31625,-0.0399 2.19538,-0.0893 z m 6.07759,0.007 c -0.39758,-0.0604 -1.11195,-0.0616 -1.5875,-0.003 -0.47555,0.0589 -0.15026,0.10828 0.72287,0.10977 0.87312,0.002 1.26221,-0.0467 0.86463,-0.10707 z m 8.66037,-0.0603 c 0.79185,-0.16379 0.2256,-0.22555 -2.24896,-0.24528 -2.22291,-0.0177 -3.17717,0.0577 -2.91042,0.2301 0.4792,0.30968 3.68992,0.31913 5.15938,0.0152 z M 95.684674,143.3712 c -0.08994,-0.14552 -0.483918,-0.26276 -0.875512,-0.26053 -0.556884,0.003 -0.62553,0.0599 -0.315113,0.26053 0.52278,0.33784 1.399426,0.33784 1.190625,0 z m 31.688896,0.091 c -0.17914,-0.0725 -0.53632,-0.0769 -0.79375,-0.01 -0.25744,0.0671 -0.11087,0.12638 0.32569,0.13178 0.43656,0.005 0.64719,-0.0495 0.46806,-0.12197 z m 5.08819,-0.091 c 0.59548,-0.15153 0.31071,-0.2098 -1.1401,-0.23328 -1.22922,-0.0199 -1.87426,0.0651 -1.77032,0.23328 0.1859,0.30079 1.72832,0.30079 2.91042,0 z m -39.555211,-0.52917 c -0.218281,-0.14106 -0.575469,-0.25648 -0.79375,-0.25648 -0.352777,0 -0.352777,0.0285 0,0.25648 0.218281,0.14107 0.575469,0.25648 0.79375,0.25648 0.352777,0 0.352777,-0.0285 0,-0.25648 z m 45.243751,0 c 0.56791,-0.18187 0.51178,-0.21279 -0.39687,-0.2186 -0.58209,-0.004 -1.59412,0.0886 -2.24896,0.2051 l -1.19063,0.21185 1.5875,0.007 c 0.87313,0.004 1.88516,-0.0886 2.24896,-0.20509 z m 4.89479,-0.52917 c 0.40983,-0.17611 0.27558,-0.23158 -0.59531,-0.24598 -0.61846,-0.0102 -1.12448,0.10046 -1.12448,0.24598 0,0.31707 0.98193,0.31707 1.71979,0 z m 3.70417,-0.52916 c 0.42449,-0.18241 0.3329,-0.23107 -0.46302,-0.24599 -0.5457,-0.0102 -0.99219,0.10047 -0.99219,0.24599 0,0.31594 0.71996,0.31594 1.45521,0 z m 4.69444,-0.89617 c 0.98121,-0.21907 1.99324,-0.53129 2.24896,-0.69381 0.5348,-0.33991 0.43864,-0.32224 -3.7684,0.69259 -1.45521,0.35103 -2.11005,0.58452 -1.45521,0.51888 0.65485,-0.0656 1.99344,-0.29859 2.97465,-0.51766 z m -98.489237,-2.808 c -0.218281,-0.14106 -0.595586,-0.2583 -0.838454,-0.26053 -0.711484,-0.007 -2.021321,-0.87308 -2.324067,-1.53753 -0.359791,-0.78966 -0.09721,-1.83953 0.700095,-2.79923 0.34765,-0.41845 0.567666,-0.82525 0.488925,-0.90399 -0.174949,-0.17495 -0.181521,-0.16794 -1.038567,1.10643 -1.264511,1.88025 -0.771009,3.50012 1.292276,4.24174 1.276185,0.45871 2.339106,0.55334 1.719792,0.15311 z m 7.672917,0 c 0.29521,-0.19078 0.142711,-0.25752 -0.595312,-0.26053 -0.545704,-0.002 -0.992188,0.11501 -0.992188,0.26053 0,0.337 1.066036,0.337 1.5875,0 z m 2.778125,-0.52917 c 0.451137,-0.19386 0.412122,-0.22739 -0.264583,-0.22739 -0.436563,0 -1.031875,0.10233 -1.322917,0.22739 -0.451136,0.19386 -0.412121,0.22739 0.264584,0.22739 0.436562,0 1.031875,-0.10232 1.322916,-0.22739 z m 2.248959,-0.52916 c 0.327567,-0.21169 0.304464,-0.25394 -0.132292,-0.24194 -0.291042,0.008 -0.767292,0.11687 -1.058333,0.24194 -0.484628,0.20825 -0.473493,0.22861 0.132291,0.24193 0.363803,0.008 0.840053,-0.10087 1.058334,-0.24193 z m 2.513542,-0.52917 c 0.482348,-0.20727 0.470644,-0.22739 -0.132292,-0.22739 -0.363802,0 -0.899583,0.10232 -1.190625,0.22739 -0.482349,0.20727 -0.470644,0.22739 0.132292,0.22739 0.363802,0 0.899583,-0.10232 1.190625,-0.22739 z m 2.38125,-0.52917 c 0.454328,-0.19523 0.416908,-0.22944 -0.264584,-0.24193 -0.436562,-0.008 -0.972343,0.10087 -1.190625,0.24193 -0.312796,0.20215 -0.256743,0.2534 0.264584,0.24194 0.363802,-0.008 0.899583,-0.11687 1.190625,-0.24194 z m 2.248958,-0.52916 c 0.310418,-0.20061 0.241772,-0.25737 -0.315114,-0.26054 -0.391594,-0.002 -0.785574,0.11502 -0.875511,0.26054 -0.2088,0.33784 0.667846,0.33784 1.190625,0 z m 1.984375,-0.52917 c 0.195221,-0.31587 -0.323262,-0.31587 -1.058333,0 -0.472502,0.20304 -0.452925,0.22938 0.182823,0.24599 0.391593,0.0102 0.785573,-0.10047 0.87551,-0.24599 z m 2.513542,-0.52917 c 0.327568,-0.21169 0.304464,-0.25394 -0.132291,-0.24193 -0.291042,0.008 -0.767292,0.11687 -1.058334,0.24193 -0.484627,0.20825 -0.473493,0.22862 0.132292,0.24194 0.363802,0.008 0.840052,-0.10087 1.058333,-0.24194 z m 2.248959,-0.52916 c 0.209581,-0.33911 -0.930471,-0.33911 -1.455209,0 -0.301987,0.19516 -0.195021,0.25745 0.447405,0.26053 0.464355,0.002 0.917867,-0.11501 1.007804,-0.26053 z m 2.672498,-0.50062 c 0.421897,-0.12982 1.48146,-0.37835 2.354585,-0.55228 2.813405,-0.56045 2.965615,-0.60633 2.429217,-0.73213 -0.481814,-0.113 -5.137405,0.84563 -6.133384,1.26292 -0.518271,0.21714 -0.51772,0.22208 0.02667,0.23962 0.305705,0.01 0.901018,-0.0883 1.322917,-0.21813 z M 53.854056,130.6233 c 0.567538,-0.41022 0.935149,-0.74585 0.816914,-0.74585 -0.34398,0 -2.700199,1.57361 -3.085233,2.06048 -0.396362,0.5012 0.373031,0.0553 2.268319,-1.31463 z m 35.745201,1.10623 c 0.08994,-0.14552 -0.08163,-0.26458 -0.381259,-0.26458 -0.29963,0 -0.544783,0.11906 -0.544783,0.26458 0,0.14552 0.171567,0.26458 0.38126,0.26458 0.209692,0 0.454845,-0.11906 0.544782,-0.26458 z m 2.778125,-0.52917 c 0.314156,-0.20302 0.259011,-0.25648 -0.264583,-0.25648 -0.363802,0 -0.840052,0.11542 -1.058334,0.25648 -0.314155,0.20303 -0.259011,0.25648 0.264584,0.25648 0.363802,0 0.840052,-0.11541 1.058333,-0.25648 z m 3.704167,-0.52916 c 0.301165,-0.19463 0.1895,-0.25746 -0.463021,-0.26054 -0.472943,-0.002 -0.859896,0.11502 -0.859896,0.26054 0,0.33607 0.802881,0.33607 1.322917,0 z m 49.244801,-0.44318 c -0.2306,-0.39655 -0.28223,-0.40798 -0.28884,-0.0639 -0.009,0.44558 0.26967,0.84677 0.45718,0.65925 0.0619,-0.0618 -0.0139,-0.32973 -0.16834,-0.59531 z m -46.935208,0.0187 c -0.08792,-0.0879 -0.316124,-0.0973 -0.507119,-0.0209 -0.211066,0.0845 -0.148373,0.14715 0.159853,0.15985 0.278914,0.0115 0.435185,-0.0511 0.347266,-0.13897 z m 47.167498,-2.78178 c 0,-0.29104 -0.11907,-0.45558 -0.26459,-0.36565 -0.14552,0.0899 -0.26458,0.40165 -0.26458,0.69269 0,0.29104 0.11906,0.45558 0.26458,0.36565 0.14552,-0.0899 0.26459,-0.40165 0.26459,-0.69269 z m -81.611948,-2.10278 c 0.400426,-0.57782 0.65083,-1.1278 0.556451,-1.22217 -0.09438,-0.0944 -0.171596,-0.0276 -0.171596,0.14841 0,0.17601 -0.565547,0.92934 -1.256771,1.67407 -0.825549,0.88944 -1.016478,1.19899 -0.556452,0.90215 0.385176,-0.24854 1.027941,-0.92465 1.428368,-1.50246 z m 46.422358,0.0598 c 0,-0.12217 -1.17891,-0.21146 -2.6198,-0.19844 -1.44088,0.013 -2.56495,0.11299 -2.49792,0.22213 0.16847,0.27433 5.11772,0.25142 5.11772,-0.0237 z m 39.73993,-1.97235 c 0.62601,-0.21815 1.6481,-0.54835 2.27131,-0.73378 0.76008,-0.22615 1.02139,-0.40803 0.79375,-0.55247 -0.25884,-0.16424 -0.24205,-0.2163 0.0707,-0.21939 0.22556,-0.002 0.53576,0.1216 0.68934,0.27518 0.40679,0.40679 1.77406,0.0222 1.42336,-0.40037 -0.28476,-0.34312 0.6234,-0.60143 4.22407,-1.20148 0.94589,-0.15762 2.31511,-0.39722 3.04271,-0.53242 4.03797,-0.75036 6.01117,-1.08769 7.67292,-1.31172 1.01864,-0.13734 3.45943,-0.49413 5.42396,-0.79287 4.3044,-0.65456 6.96148,-1.03441 9.26041,-1.32383 2.0847,-0.26245 2.57982,-0.4488 2.92979,-1.10272 0.43054,-0.80448 -0.25803,-1.84827 -1.84477,-2.79645 -2.16499,-1.29373 -3.72988,-1.55187 -6.97393,-1.1504 -2.89692,0.3585 -10.84182,1.87041 -13.02879,2.47937 -0.72761,0.20259 -1.97777,0.51775 -2.77813,0.70035 -5.39675,1.23121 -19.92643,5.70462 -21.98312,6.76817 -0.67462,0.34886 -0.78933,0.54848 -0.72056,1.25389 0.12302,1.26175 0.93333,1.57285 3.65368,1.40275 1.23693,-0.0774 2.65445,-0.22195 3.15005,-0.32133 l 0.90109,-0.18071 -1.03339,0.97326 -1.03338,0.97325 1.37535,-0.90483 c 0.75645,-0.49765 1.88754,-1.08331 2.51354,-1.30145 z m -45.56076,1.54232 c 0,-0.0676 -0.26789,-0.2528 -0.59532,-0.41147 -0.57166,-0.27703 -0.57491,-0.27214 -0.0817,0.12299 0.53982,0.43248 0.67704,0.49095 0.67704,0.28848 z m 10.05416,-0.1416 c 0,-0.33607 -0.80288,-0.33607 -1.32291,0 -0.30117,0.19463 -0.1895,0.25746 0.46302,0.26054 0.47294,0.002 0.85989,-0.11502 0.85989,-0.26054 z m 3.70417,-0.52916 c 0.56831,-0.18201 0.51242,-0.21293 -0.39687,-0.21961 -0.58209,-0.004 -1.29646,0.0945 -1.5875,0.21961 -0.42685,0.18342 -0.3501,0.22589 0.39687,0.21961 0.50932,-0.004 1.2237,-0.1031 1.5875,-0.21961 z m -15.61042,-0.36547 c 0,-0.2163 -1.89468,-1.53221 -2.02233,-1.40456 -0.0745,0.0745 0.31813,0.44373 0.87255,0.82046 1.02956,0.69961 1.14978,0.76068 1.14978,0.5841 z m 18.41521,-0.14329 c 0.4219,-0.1343 1.24334,-0.32814 1.82542,-0.43078 0.58208,-0.10262 0.89364,-0.24608 0.69235,-0.31879 -0.3801,-0.13729 -2.94297,0.35113 -3.86735,0.73702 -0.51821,0.21633 -0.51765,0.22128 0.0267,0.23882 0.30571,0.01 0.90102,-0.092 1.32292,-0.22627 z m -5.30448,-0.96054 c 13.59998,-2.33555 27.84447,-6.71827 30.515,-9.3888 1.82361,-1.82361 2.41086,-7.11326 1.93143,-17.397258 -0.42365,-9.087424 -1.67235,-21.646153 -2.45724,-24.713562 -0.4926,-1.925114 -2.84627,-3.61798 -11.87908,-8.543981 -6.5842,-3.590657 -8.36143,-4.631469 -10.18646,-5.96557 -2.72405,-1.991274 -4.46865,-2.525457 -9.525,-2.916462 -8.27334,-0.639775 -23.343018,1.379011 -29.524196,3.955161 -4.001948,1.667906 -4.239821,2.353974 -4.408014,12.71348 -0.161833,9.967898 0.478774,20.855598 1.791195,30.442952 0.814012,5.94642 0.261569,5.09383 6.541334,10.09535 9.07896,7.23094 13.293261,10.36117 16.074681,11.93968 1.29,0.7321 1.39568,0.74714 4.24718,0.60449 1.60834,-0.0805 4.70397,-0.45192 6.87917,-0.82548 z m -15.2965,-47.834618 c -1.776421,-0.504065 -2.78442,-1.303056 -5.488949,-4.350818 -1.30315,-1.468535 -3.294367,-3.380742 -4.424926,-4.249348 -3.300201,-2.53554 -3.996156,-3.191289 -3.400354,-3.203917 1.024554,-0.02172 7.261281,3.530905 11.700834,6.665136 3.574495,2.523523 6.231975,3.289016 10.502325,3.025225 2.51155,-0.155146 11.39655,-1.215219 18.0153,-2.149413 1.58968,-0.224373 3.16725,-0.407951 3.50573,-0.407951 0.82466,0 0.82261,0.878981 -0.003,1.255122 -1.26198,0.574995 -8.76432,1.839969 -19.22543,3.241612 -3.67854,0.492873 -9.72672,0.58718 -11.18161,0.174352 z m 24.93994,47.716418 c 0,-0.33454 -0.54067,-0.33454 -1.05833,0 -0.30927,0.19986 -0.23626,0.25737 0.33073,0.26053 0.40018,0.002 0.7276,-0.11501 0.7276,-0.26053 z M 63.80238,122.3651 c 0,-0.0572 -0.184777,-0.17489 -0.410617,-0.26155 -0.235459,-0.0904 -0.341662,-0.046 -0.248968,0.10398 0.155379,0.25141 0.659585,0.37186 0.659585,0.15757 z m 63.89688,-0.1606 c 0.20819,-0.33686 -0.40478,-0.33686 -0.92604,0 -0.32266,0.20852 -0.28846,0.25724 0.18282,0.26053 0.31883,0.002 0.65328,-0.11501 0.74322,-0.26053 z m -27.64896,-0.12298 c 0,-0.0676 -0.267891,-0.2528 -0.595313,-0.41147 -0.571667,-0.27703 -0.574911,-0.27215 -0.08172,0.12298 0.539819,0.43248 0.677033,0.49095 0.677033,0.28849 z m 30.03021,-0.42876 c 0.47639,-0.18768 0.4632,-0.2092 -0.13229,-0.21586 -0.3638,-0.004 -0.95912,0.16794 -1.32292,0.38225 l -0.66146,0.38965 0.79375,-0.17379 c 0.43657,-0.0956 1.03188,-0.2676 1.32292,-0.38225 z m -68.130213,0.0226 c 0,-0.14552 -0.327422,-0.26276 -0.727604,-0.26053 -0.566986,0.003 -0.639994,0.0607 -0.330729,0.26053 0.517666,0.33455 1.058333,0.33455 1.058333,0 z m 98.160423,0 c 0.88796,-0.28437 -1.92514,-0.28437 -3.04271,0 -0.62665,0.15946 -0.45956,0.20302 0.79375,0.20691 0.87313,0.003 1.88516,-0.0904 2.24896,-0.20691 z M 59.436755,121.14658 c -0.291042,-0.12507 -1.005417,-0.22389 -1.5875,-0.21962 -0.909296,0.007 -0.965185,0.0376 -0.396875,0.21962 0.363802,0.11651 1.078177,0.21533 1.5875,0.21961 0.746974,0.006 0.823718,-0.0362 0.396875,-0.21961 z m 75.695995,-0.82854 c 1.39271,-0.44184 2.48961,-0.84594 2.43755,-0.89799 -0.1119,-0.1119 -5.66356,1.4046 -6.43146,1.75682 -1.06686,0.48936 1.45082,-0.052 3.99391,-0.85883 z m 31.59255,0.82854 c 0.28705,-0.1855 0.0491,-0.2576 -0.85989,-0.26054 -0.69123,-0.002 -1.25677,0.11502 -1.25677,0.26054 0,0.33805 1.59357,0.33805 2.11666,0 z m -68.019965,-0.0917 c -0.06064,-0.0504 -1.181807,-0.90336 -2.491494,-1.89535 -1.309688,-0.992 -2.532804,-1.92006 -2.718036,-2.06237 -0.249952,-0.19202 -0.293817,-0.14676 -0.17013,0.17557 0.09166,0.23886 0.250466,0.43429 0.352899,0.43429 0.102433,0 1.191025,0.77063 2.419088,1.71251 1.228066,0.94188 2.341986,1.71578 2.475381,1.71979 0.133393,0.004 0.192924,-0.034 0.132292,-0.0844 z m -43.105038,-0.43744 c -0.218282,-0.14106 -0.694532,-0.25648 -1.058334,-0.25648 -0.523594,0 -0.57874,0.0535 -0.264583,0.25648 0.218281,0.14107 0.694531,0.25648 1.058333,0.25648 0.523594,0 0.57874,-0.0535 0.264584,-0.25648 z m 116.152093,0 c 0.56962,-0.18242 0.51452,-0.21338 -0.39688,-0.22296 -0.58208,-0.006 -1.53458,0.0874 -2.11666,0.20778 -1.05271,0.21775 -1.0506,0.21893 0.39687,0.22296 0.80037,0.002 1.75287,-0.0913 2.11667,-0.20778 z m -118.533344,-0.5292 c -0.218281,-0.14106 -0.548069,-0.2583 -0.732862,-0.26053 -0.184792,-0.002 -0.809871,-0.3032 -1.389062,-0.66883 -1.250072,-0.78913 -1.350086,-1.46648 -0.352982,-2.39056 0.385051,-0.35686 0.581031,-0.64883 0.43551,-0.64883 -0.145521,0 -0.566523,0.27983 -0.93556,0.62184 -0.4939,0.45774 -0.636016,0.80473 -0.538502,1.31484 0.15297,0.80021 0.428344,1.0657 1.832399,1.76659 1.083502,0.54088 2.438271,0.75483 1.681059,0.26548 z m 120.721184,0.091 c -0.17913,-0.0725 -0.53631,-0.0769 -0.79375,-0.01 -0.25743,0.0671 -0.11086,0.12638 0.3257,0.13177 0.43656,0.005 0.64719,-0.0495 0.46805,-0.12197 z m 2.31007,-0.091 c 0.30451,-0.19678 0.21213,-0.25648 -0.39687,-0.25648 -0.43656,0 -0.97234,0.11542 -1.19063,0.25648 -0.3045,0.19679 -0.21212,0.25648 0.39688,0.25648 0.43656,0 0.97234,-0.11541 1.19062,-0.25648 z m 3.43959,-0.52916 c 0.30926,-0.19986 0.23625,-0.25738 -0.33073,-0.26054 -0.40018,-0.002 -0.72761,0.11502 -0.72761,0.26054 0,0.33454 0.54067,0.33454 1.05834,0 z m -40.48125,-0.52917 c 0.32265,-0.20852 0.28846,-0.25724 -0.18283,-0.26053 -0.31883,-0.002 -0.65328,0.11501 -0.74322,0.26053 -0.20819,0.33687 0.40478,0.33687 0.92605,0 z m 4.13731,-1.5814 c 0.56214,-0.31149 0.78394,-0.48303 0.49289,-0.3812 -1.75155,0.61283 -3.56702,1.34038 -3.71573,1.4891 -0.32715,0.32715 2.20231,-0.54239 3.22284,-1.1079 z m -50.439401,-0.65209 c 0,-0.15882 -3.092628,-2.52901 -3.299849,-2.52901 -0.09077,0 0.525261,0.58803 1.368967,1.30674 1.407316,1.19881 1.930882,1.53023 1.930882,1.22227 z m 54.901041,-1.79964 c 0.3588,-0.34828 0.18844,-0.29611 -0.52916,0.16206 -1.59619,1.01911 -2.25817,1.60709 -1.05834,0.94001 0.58209,-0.32362 1.29646,-0.81955 1.5875,-1.10207 z m -93.688024,-0.042 c 0.568047,-0.23635 0.967048,-0.49549 0.88667,-0.57586 -0.15524,-0.15524 -3.37469,1.38919 -3.37469,1.6189 0,0.0744 0.327422,-0.0332 0.727604,-0.23903 0.400183,-0.20586 1.19237,-0.56767 1.760416,-0.80401 z m 3.80338,-1.71528 c 0.832595,-0.41983 2.287715,-1.08572 3.233601,-1.47975 0.945885,-0.39402 1.838854,-0.83294 1.984375,-0.97537 0.364765,-0.35703 -1.88401,0.55584 -4.894792,1.98699 -1.382448,0.65713 -2.361318,1.20304 -2.175268,1.21313 0.186051,0.0101 1.019489,-0.32516 1.852084,-0.745 z m 30.728222,0.13355 c -0.669153,-0.61077 -4.771838,-3.86813 -4.871951,-3.86813 -0.407284,0 -0.0308,0.56953 0.594519,0.89937 0.400182,0.21109 1.436825,0.98805 2.303653,1.72659 0.866825,0.73853 1.690341,1.34279 1.830036,1.34279 0.139692,0 0.204374,-0.0453 0.143743,-0.10062 z m 61.118152,-1.61917 -0.0145,-0.52917 -0.22739,0.52917 c -0.12507,0.29104 -0.23394,0.70776 -0.24194,0.92604 -0.0129,0.35278 0.0139,0.35278 0.24194,0 0.14106,-0.21828 0.24993,-0.635 0.24193,-0.92604 z m -84.787959,-1.7419 c 0.685437,-0.3032 1.188466,-0.60906 1.117843,-0.67968 -0.07062,-0.0706 -0.705597,0.17191 -1.411052,0.53895 -1.564972,0.81426 -1.404034,0.8915 0.293209,0.14073 z m 85.335729,-0.58882 c -0.003,-0.64243 -0.0654,-0.74939 -0.26054,-0.44741 -0.33911,0.52474 -0.33911,1.66479 0,1.45521 0.14552,-0.0899 0.26276,-0.54345 0.26054,-1.0078 z m 26.46238,0.0818 c 0.56192,-0.17996 0.49224,-0.2158 -0.46302,-0.23821 -0.61846,-0.0145 -1.12448,0.0927 -1.12448,0.23821 0,0.30494 0.63534,0.30494 1.5875,0 z m -94.14342,-0.92604 c -0.432355,-0.3638 -0.887973,-0.65718 -1.012489,-0.65195 -0.283093,0.0119 1.280261,1.31029 1.579851,1.31209 0.120304,8e-4 -0.135009,-0.29634 -0.567362,-0.66014 z m 89.22755,0.43098 c 0.21112,-0.34159 -2.04672,-0.58428 -2.36017,-0.25368 -0.18351,0.19354 -0.0822,0.22394 0.33073,0.0992 0.35788,-0.10812 0.59531,-0.0672 0.59531,0.10255 0,0.33742 1.23016,0.38197 1.43413,0.0519 z m 2.73614,0.0487 c -0.25296,-0.0662 -0.72921,-0.0686 -1.05833,-0.005 -0.32912,0.0633 -0.12215,0.11747 0.45994,0.12041 0.58208,0.003 0.85136,-0.0488 0.59839,-0.11507 z M 68.141399,108.28821 c 0.07826,-0.20394 0.07867,-0.3708 9.09e-4,-0.3708 -0.320168,0 -1.164927,0.56439 -1.164927,0.77829 0,0.35954 1.004641,0.008 1.164018,-0.40749 z m 100.171401,0.15837 c 0.31042,-0.20061 0.24177,-0.25737 -0.31511,-0.26054 -0.39159,-0.002 -0.78557,0.11502 -0.87551,0.26054 -0.2088,0.33784 0.66784,0.33784 1.19062,0 z m -2.52911,-0.38846 c -0.28248,-0.21366 -0.8053,-0.39225 -1.16182,-0.39688 -1.13413,-0.0147 0.008,0.65109 1.29411,0.75465 0.25937,0.0209 0.21707,-0.0935 -0.13229,-0.35777 z m -15.28181,-0.98407 c -0.0845,-0.21107 -0.14716,-0.14837 -0.15986,0.15985 -0.0115,0.27892 0.0511,0.43519 0.13897,0.34727 0.0879,-0.0879 0.0973,-0.31612 0.0209,-0.50712 z m 12.10915,0.35398 c -0.34758,-0.31085 -2.54228,-1.14434 -2.67191,-1.01472 -0.0581,0.0581 0.52236,0.35297 1.2898,0.65537 1.61112,0.63485 1.72256,0.66383 1.38211,0.35935 z m -81.893585,-2.44882 c -0.161877,-1.07613 -0.390429,-2.31378 -0.507891,-2.75034 -0.395611,-1.47033 -0.306351,0.32612 0.129331,2.60296 0.218257,1.14059 0.39683,2.1427 0.39683,2.22691 0,0.0842 0.06211,0.091 0.138028,0.0151 0.07591,-0.0759 0.0056,-1.01849 -0.156298,-2.09462 z m 69.787045,-0.95937 c -0.0671,-0.25743 -0.12638,-0.11087 -0.13177,0.32569 -0.005,0.43657 0.0495,0.64719 0.12197,0.46806 0.0725,-0.17913 0.0769,-0.53632 0.01,-0.79375 z m -81.675026,0.32925 c 0,-0.1763 -1.845183,-0.9343 -2.215125,-0.90998 -0.164129,0.0108 0.177833,0.24009 0.759917,0.50955 1.118828,0.51793 1.455208,0.61049 1.455208,0.40043 z m -2.910417,-1.19418 c -0.218281,-0.14107 -0.575469,-0.25648 -0.79375,-0.25648 -0.352778,0 -0.352778,0.0285 0,0.25648 0.218281,0.14107 0.575469,0.25648 0.79375,0.25648 0.352778,0 0.352778,-0.0285 0,-0.25648 z m 95.624943,-0.25518 c 0.66691,-0.28587 1.21256,-0.58256 1.21256,-0.65932 0,-0.17481 -2.15933,0.64934 -2.50031,0.95429 -0.3939,0.35228 -0.0252,0.26782 1.28775,-0.29497 z m -97.587599,-0.23884 c -0.07799,-0.1262 -0.968177,-0.49516 -1.978189,-0.81992 -3.34282,-1.07486 -3.618449,-2.020286 -0.956449,-3.280685 1.902357,-0.900723 2.239993,-0.88121 1.221108,0.07057 -0.973941,0.909799 -0.987126,0.977336 -0.266121,1.363207 0.412524,0.220778 1.008727,0.218048 2.315104,-0.01058 0.967722,-0.169373 2.47387,-0.423513 3.346995,-0.564761 2.351947,-0.380481 3.851259,-0.680022 7.771604,-1.552649 1.946048,-0.433171 3.642688,-0.723048 3.770313,-0.644173 0.127624,0.07887 0.232042,0.612635 0.232042,1.18613 0,0.574921 0.129135,1.042717 0.28784,1.042717 0.181594,0 0.235165,-0.366223 0.145132,-0.992187 -0.07849,-0.545703 -0.219623,-1.930382 -0.313634,-3.077062 l -0.170924,-2.084875 -1.363271,0.17611 c -2.202273,0.284493 -4.220441,0.640098 -7.977852,1.405718 -0.627936,0.12795 -1.058333,0.366255 -1.058333,0.585986 0,0.203687 -0.148828,0.419946 -0.330729,0.480581 -0.181902,0.06063 -0.33073,-0.01873 -0.33073,-0.17639 0,-0.452895 -0.509918,-0.347853 -2.912236,0.599916 -4.185849,1.651413 -6.558679,2.846809 -6.696426,3.373552 -0.211893,0.810275 0.606783,1.512745 2.729495,2.342035 2.061425,0.80536 2.777178,0.96819 2.535261,0.57676 z m 0.04002,-5.359646 c 0.179476,-0.180821 0.39297,-0.262114 0.474432,-0.180652 0.08146,0.08146 -0.06538,0.229407 -0.32632,0.328766 -0.377083,0.143584 -0.407474,0.113194 -0.148112,-0.148114 z m 2.66678,-0.941657 c 0.190996,-0.07643 0.419199,-0.06703 0.507118,0.02088 0.08792,0.08792 -0.06835,0.150452 -0.347266,0.138964 -0.308224,-0.0127 -0.370919,-0.07539 -0.159852,-0.159851 z m 97.416279,5.736993 c 0.32093,-0.2074 0.28296,-0.25726 -0.19844,-0.26054 -0.32742,-0.002 -0.59531,0.11502 -0.59531,0.26054 0,0.3315 0.28079,0.3315 0.79375,0 z m 8.18004,-0.69824 c 0.2631,-0.22794 -7.02868,-0.0621 -7.38629,0.16794 -0.2589,0.16658 0.9369,0.19837 3.43958,0.0915 2.11006,-0.0901 3.88607,-0.20687 3.94671,-0.2594 z m 5.84288,-0.3601 c 0.29113,-0.18814 0.10142,-0.25756 -0.71199,-0.26053 -0.60988,-0.002 -1.18245,0.11501 -1.27239,0.26053 -0.21184,0.34277 1.45399,0.34277 1.98438,0 z M 150.7681,99.781472 c -0.0666,-0.254661 -0.121,-0.0463 -0.121,0.463018 0,0.50933 0.0545,0.71769 0.121,0.46302 0.0666,-0.25466 0.0666,-0.67138 0,-0.926038 z m 31.8322,0.727608 c 0.30117,-0.19463 0.1895,-0.25746 -0.46302,-0.26054 -0.47294,-0.002 -0.85989,0.11502 -0.85989,0.26054 0,0.33607 0.80288,0.33607 1.32291,0 z m 3.57188,-0.52917 c 0.42647,-0.183261 0.33964,-0.231 -0.44741,-0.245986 -0.53711,-0.01024 -1.05015,0.100465 -1.14009,0.245986 -0.19732,0.31926 0.84453,0.31926 1.5875,0 z m 2.77812,-0.529167 c 0.31042,-0.200607 0.24178,-0.257363 -0.31511,-0.260532 -0.39159,-0.0021 -0.78557,0.115011 -0.87551,0.260532 -0.2088,0.337847 0.66785,0.337847 1.19062,0 z m 2.64584,-0.529167 c 0.31042,-0.200607 0.24177,-0.257362 -0.31511,-0.260532 -0.3916,-0.0021 -0.78558,0.115012 -0.87552,0.260532 -0.2088,0.337847 0.66785,0.337847 1.19063,0 z m 2.11667,-0.529166 c 0.31415,-0.203023 0.25901,-0.256479 -0.26459,-0.256479 -0.3638,0 -0.84005,0.115414 -1.05833,0.256479 -0.31416,0.203023 -0.25901,0.256479 0.26458,0.256479 0.3638,0 0.84005,-0.115414 1.05834,-0.256479 z m -43.1976,-2.96957 c -0.0559,-0.62231 -0.10241,-0.178972 -0.10337,0.985195 -0.001,1.164166 0.0448,1.673328 0.10162,1.131472 0.0568,-0.541856 0.0576,-1.494356 0.002,-2.116667 z m 45.36796,2.461927 c 0.33427,-0.133681 0.83316,-0.315076 1.10865,-0.403101 0.27549,-0.08803 0.44904,-0.211899 0.38566,-0.275275 -0.0634,-0.06337 -0.82456,0.107159 -1.69151,0.378968 -0.86696,0.271809 -1.314,0.505058 -0.99343,0.518332 0.32058,0.01328 0.85636,-0.08524 1.19063,-0.218924 z m 3.98729,-1.439953 c 1.54551,-0.629586 2.09627,-0.962821 1.59133,-0.962821 -0.34265,0 -3.25107,1.319186 -3.25107,1.474605 0,0.164669 -0.003,0.165706 1.65974,-0.511784 z m 2.83818,-2.004372 c 0,-0.264636 -0.17164,-0.623607 -0.38143,-0.797713 -0.51363,-0.426276 -3.55628,-1.336792 -4.38107,-1.311042 -0.3638,0.01135 0.19922,0.243035 1.25117,0.514839 2.51648,0.650214 2.98216,0.921041 2.98216,1.734349 0,0.377801 0.11489,0.59676 0.26459,0.504243 0.14552,-0.08994 0.26458,-0.380042 0.26458,-0.644676 z m -46.1698,-3.191782 c 5.1239,-0.11139 5.73008,-0.163396 3.83646,-0.329145 -2.72595,-0.238601 -7.96313,-0.255561 -9.32656,-0.0302 -0.96692,0.159821 -0.9913,0.191751 -0.95736,1.253858 l 0.0348,1.089861 0.16361,-0.926042 0.16361,-0.926042 z m 39.68751,0.79375 c -0.74297,-0.319265 -1.78482,-0.319265 -1.5875,0 0.0899,0.14552 0.60298,0.256214 1.14009,0.245985 0.78705,-0.01497 0.87388,-0.06272 0.44741,-0.245985 z m -4.10104,-0.529167 c -0.96219,-0.308147 -2.64584,-0.308147 -2.64584,0 0,0.150979 0.71002,0.253259 1.65365,0.23821 1.22895,-0.01961 1.48377,-0.08078 0.99219,-0.23821 z m -8.86355,-0.539351 c -2.15898,-0.267872 -5.06802,-0.27016 -6.35,-0.005 -0.71273,0.147426 0.41045,0.216143 3.43959,0.210436 3.24863,-0.0061 4.05699,-0.06318 2.91041,-0.205441 z m -2.57968,18.355788 c 0.1819,-0.0734 0.47955,-0.0734 0.66145,0 0.1819,0.0734 0.0331,0.13346 -0.33073,0.13346 -0.3638,0 -0.51263,-0.0601 -0.33072,-0.13346 z"
         id="path31"
         inkscape:connector-curvature="0"
         inkscape:export-xdpi="168.96001"
         inkscape:export-ydpi="168.96001" />
      <path
         style="fill:#9fa3a3;stroke-width:0.26458335"
         d="m 97.536758,145.63105 c -4.79914,-0.4 -6.826005,-0.98679 -7.926598,-2.29477 -1.165651,-1.38529 -1.206563,-2.6538 -0.129741,-4.02275 0.887114,-1.12778 1.374281,-0.90305 0.702199,0.32393 -0.717957,1.31073 -0.397198,2.15797 1.107655,2.92569 2.902453,1.48072 13.125537,2.11554 26.551557,1.64876 23.28145,-0.80941 38.56472,-3.13563 38.56472,-5.86982 0,-0.80469 0.44744,-0.84642 1.03715,-0.0967 1.64955,2.09707 -0.62841,3.65735 -7.31676,5.01159 -4.54901,0.92107 -13.85118,1.93878 -20.5756,2.25108 -9.66596,0.44892 -27.29198,0.51665 -32.014582,0.12302 z m -45.60935,-5.45562 c -1.934348,-0.37999 -3.014578,-1.08152 -3.658393,-2.37584 -0.321424,-0.64619 -0.589315,-1.45873 -0.595313,-1.80565 -0.04886,-2.82587 2.938115,-5.60066 8.055151,-7.48294 2.413874,-0.88793 2.416232,-0.49138 0.0044,0.73581 -4.361537,2.21921 -6.482933,4.23758 -6.482933,6.16809 0,2.27921 1.742023,3.06692 6.746876,3.05081 3.883423,-0.0125 3.463942,0.0631 18.256251,-3.29028 14.644053,-3.31978 20.86169,-4.49975 23.724715,-4.50244 1.81813,-0.002 2.336738,0.17323 2.336738,0.78825 0,0.71003 -0.673641,1.13084 -1.514582,0.94614 -1.724528,-0.37877 -10.413646,1.24858 -26.886899,5.03554 -13.030838,2.99561 -16.34215,3.44833 -19.985987,2.73251 z m 93.793662,-9.3454 c -1.09058,-2.29823 0.0881,-5.00399 2.90307,-6.66409 2.14291,-1.26377 5.62152,-1.90114 14.2647,-2.61366 15.45881,-1.27438 21.80951,-2.43688 26.39473,-4.83154 4.19695,-2.19188 4.50686,-4.82408 0.74376,-6.31712 -1.03749,-0.41163 -1.11064,-0.49233 -0.63757,-0.70342 0.74324,-0.33165 2.52564,0.19141 3.52887,1.03558 1.18821,0.99981 1.93711,2.60082 1.73086,3.70024 -0.25585,1.3638 -1.85466,2.83745 -4.38838,4.04484 -4.75228,2.26459 -11.40586,3.44806 -26.18164,4.65693 -6.41479,0.52482 -8.85699,0.83767 -11.18301,1.43257 -4.38072,1.1204 -6.27949,2.98474 -6.27949,6.16562 0,1.23534 -0.3375,1.27077 -0.8959,0.094 z m -85.622857,-3.52092 c 0,-0.10311 0.595313,-0.75528 1.322917,-1.44927 0.727604,-0.69398 1.322917,-1.38647 1.322917,-1.53887 0,-0.46359 -1.23449,-0.78799 -5.538198,-1.45534 -2.265502,-0.35129 -4.676018,-0.80802 -5.356703,-1.01493 -2.435923,-0.74049 -3.657183,-2.11533 -3.657183,-4.1171 0,-1.64147 0.351895,-1.85893 10.132565,-6.26164 6.352857,-2.8597 9.711186,-4.67307 9.711186,-5.24369 0,-0.44757 -0.56786,-0.69164 -4.368822,-1.87781 -4.534489,-1.41508 -5.607923,-2.01159 -6.255884,-3.47641 -0.488761,-1.104928 -0.496379,-1.238506 -0.104724,-1.836245 0.459733,-0.701643 2.923544,-2.028528 6.159817,-3.317369 2.795924,-1.113473 8.263742,-2.463009 12.363175,-3.051411 l 3.389344,-0.486481 -0.158967,-2.25288 c -0.597543,-8.468463 -0.743818,-13.061483 -0.630105,-19.78537 0.126659,-7.489431 0.286494,-8.993465 1.148863,-10.810775 1.365846,-2.878305 10.408254,-5.439774 22.323969,-6.323774 9.51363,-0.705795 17.35265,-0.338202 19.83914,0.93031 0.65003,0.331622 2.07785,1.221406 3.17293,1.977298 2.34959,1.62183 2.77127,1.864387 9.66398,5.558911 9.26167,4.964299 12.56772,7.280727 12.94288,9.068577 0.36405,1.734879 1.2072,8.21514 1.59219,12.237152 0.22983,2.401094 0.48136,4.960937 0.55895,5.688542 l 0.14107,1.322916 17.78245,0.0062 c 17.90096,0.0062 22.12689,0.163822 28.96324,1.079907 5.61564,0.752507 7.31504,1.429489 7.9483,3.166317 0.35947,0.98588 0.35245,1.13724 -0.0835,1.802604 -2.02059,3.083819 -18.54019,6.619721 -33.59765,7.191341 -2.64985,0.10059 -5.09583,0.33467 -5.95313,0.56971 -1.94699,0.53379 -3.96875,1.40464 -3.96875,1.70948 0,0.36638 2.05109,1.20651 4.11298,1.68469 2.51029,0.58218 9.0892,1.64085 11.57864,1.86323 1.13607,0.10148 1.96951,0.27976 1.85208,0.39617 -0.40702,0.40352 -10.69052,-0.89866 -14.83324,-1.87831 -5.62938,-1.3312 -5.98037,-3.01473 -0.98436,-4.72144 2.51637,-0.85962 2.78989,-0.89565 8.44092,-1.11196 8.62519,-0.33015 15.36091,-1.26579 22.86387,-3.175934 5.81801,-1.481185 8.88469,-2.90395 8.7218,-4.046424 -0.2372,-1.663742 -5.92263,-2.75477 -17.41102,-3.341156 -5.56754,-0.284176 -32.58307,-0.365461 -34.17129,-0.102817 l -0.96607,0.159761 0.04,8.634725 c 0.0422,9.102235 -0.10915,10.775825 -1.20555,13.330885 -0.41951,0.97764 -0.88445,1.48712 -2.09446,2.29514 -5.10869,3.41145 -24.40835,8.53528 -37.00892,9.82543 -3.55618,0.36411 -4.3327,0.22045 -6.84624,-1.26665 -2.01198,-1.19035 -10.815402,-7.77292 -17.144886,-12.81971 l -4.539595,-3.61963 -0.412728,-1.93662 C 80.449346,103.39058 79.82041,98.711185 79.538068,95.381949 l -0.176771,-2.084422 -1.760188,0.176686 c -2.908311,0.291931 -8.065967,1.422395 -11.088321,2.430359 -3.797324,1.266421 -7.632336,3.11548 -7.801245,3.761389 -0.328726,1.257049 0.711897,1.861619 6.169867,3.584489 2.121435,0.66966 4.056201,1.4375 4.299479,1.70632 1.509335,1.6678 -0.275199,2.9388 -10.627507,7.56927 -5.849063,2.61622 -8.609532,4.10635 -8.871462,4.78893 -0.08371,0.21814 -0.04179,0.68702 0.09316,1.04194 0.505557,1.32971 2.457495,2.08053 7.28043,2.80041 4.51952,0.67459 5.809935,0.99109 6.611516,1.62161 1.177788,0.92645 0.708785,2.20146 -1.402901,3.81385 -1.079325,0.82413 -2.165907,1.18349 -2.165907,0.71633 z m 55.708647,-4.45683 c 13.59998,-2.33555 27.84447,-6.71827 30.515,-9.3888 1.82361,-1.82361 2.41086,-7.11326 1.93143,-17.397258 -0.42365,-9.087424 -1.67235,-21.646153 -2.45724,-24.713562 -0.4926,-1.925114 -2.84627,-3.61798 -11.87908,-8.543981 -6.5842,-3.590657 -8.36143,-4.631469 -10.18646,-5.96557 -2.72405,-1.991274 -4.46865,-2.525457 -9.525,-2.916462 -8.27334,-0.639775 -23.343018,1.379011 -29.524196,3.955161 -4.001948,1.667906 -4.239821,2.353974 -4.408014,12.71348 -0.161833,9.967898 0.478774,20.855598 1.791195,30.442952 0.814012,5.94642 0.261569,5.09383 6.541334,10.09535 9.07896,7.23094 13.293261,10.36117 16.074681,11.93968 1.29,0.7321 1.39568,0.74714 4.24718,0.60449 1.60834,-0.0805 4.70397,-0.45192 6.87917,-0.82548 z m 64.87522,-13.5226 c 0.1819,-0.0734 0.47955,-0.0734 0.66145,0 0.1819,0.0734 0.0331,0.13346 -0.33073,0.13346 -0.3638,0 -0.51263,-0.0601 -0.33072,-0.13346 z"
         id="path29"
         inkscape:connector-curvature="0"
         inkscape:export-xdpi="168.96001"
         inkscape:export-ydpi="168.96001" />
      <path
         style="fill:#ffff00;stroke-width:0.26458335"
         d="m 100.97634,145.76693 c -7.869631,-0.51605 -10.526233,-1.31455 -11.666804,-3.50669 -0.527302,-1.01346 -0.467334,-1.5004 0.325704,-2.64475 0.908902,-1.31155 1.269881,-1.29706 0.547378,0.022 -0.717957,1.31074 -0.397198,2.15797 1.107655,2.92569 2.902453,1.48072 13.125537,2.11554 26.551557,1.64877 23.34105,-0.8115 38.56472,-3.13482 38.56472,-5.88545 0,-0.80583 0.49637,-0.59789 0.97657,0.4091 0.41708,0.87463 0.41359,0.9482 -0.0704,1.48381 -2.05596,2.27513 -9.97368,3.72421 -27.36447,5.0082 -7.76903,0.5736 -23.87674,0.87346 -28.97188,0.53934 z m -48.154169,-5.7375 c -2.657409,-0.4125 -4.110711,-1.3795 -4.885907,-3.25099 -1.032828,-2.49346 2.419458,-5.97739 8.007251,-8.08063 2.550851,-0.96013 2.501267,-0.83068 -0.210286,0.549 -4.361537,2.21921 -6.482933,4.23758 -6.482933,6.16809 0,2.27921 1.742023,3.06692 6.746876,3.05081 3.883423,-0.0125 3.463942,0.0631 18.256251,-3.29028 14.80932,-3.35724 20.875925,-4.50328 23.812501,-4.49839 1.783501,0.003 2.343766,0.23732 2.208846,0.92392 -0.1392,0.70842 -0.973353,1.1511 -1.270657,0.67434 -0.539062,-0.86443 -8.692891,0.59607 -27.793399,4.97832 -4.438386,1.0183 -9.067339,2.03792 -10.286563,2.26581 -2.344464,0.43823 -6.769812,0.71679 -8.10198,0.51 z m 92.898899,-9.1994 c -1.09058,-2.29823 0.0881,-5.00399 2.90307,-6.66409 2.14291,-1.26377 5.62152,-1.90114 14.2647,-2.61366 15.45881,-1.27438 21.80951,-2.43688 26.39473,-4.83154 4.22261,-2.20529 4.49804,-4.63214 0.72507,-6.38863 l -1.19063,-0.55428 1.19063,0.15472 c 1.84673,0.23999 3.18166,1.10301 3.91481,2.5309 0.5517,1.07448 0.59678,1.3577 0.34,2.13574 -0.75224,2.27933 -4.23963,4.20597 -10.19627,5.63302 -4.19083,1.004 -9.79755,1.69827 -23.42729,2.90096 -4.90582,0.43289 -8.53518,1.10742 -10.40216,1.93328 -2.56382,1.13409 -4.10837,3.40351 -3.81335,5.60298 0.174,1.29731 -0.13087,1.36692 -0.70331,0.1606 z M 61.5321,126.14711 c 0.813317,-0.74333 1.47653,-1.57817 1.47653,-1.85863 0,-0.71181 -0.807754,-0.95979 -5.539685,-1.70068 -4.998586,-0.78264 -6.608203,-1.23345 -7.707863,-2.15875 -0.82523,-0.69438 -1.569119,-2.03866 -1.569119,-2.83554 0,-0.98534 2.707845,-2.46567 12.832292,-7.0152 5.982961,-2.68851 8.18427,-4.29183 6.971346,-5.07756 -0.196219,-0.12711 -1.904575,-0.72075 -3.796346,-1.3192 -4.462542,-1.41168 -5.851853,-2.11923 -6.394138,-3.25642 -0.737061,-1.545631 -0.393379,-2.039235 2.377385,-3.414457 4.330234,-2.14924 10.205869,-3.780685 16.950527,-4.706528 l 2.350437,-0.322643 -0.150337,-2.799234 c -0.08268,-1.539579 -0.290208,-5.359077 -0.461161,-8.487775 -0.385561,-7.05632 -0.192259,-17.741366 0.360786,-19.942815 0.536443,-2.135363 1.095902,-2.786693 3.374269,-3.928371 6.012805,-3.012984 24.003077,-5.420258 33.185987,-4.440609 3.88642,0.41461 5.29158,0.894319 8.06979,2.754947 3.02358,2.024957 4.61457,2.943378 11.50938,6.643941 8.81848,4.733033 11.56441,6.730461 11.89784,8.654645 0.49596,2.862157 1.21759,8.65458 1.59113,12.771803 0.23765,2.619376 0.48623,5.128459 0.5524,5.57574 l 0.12031,0.813239 17.26083,-0.01373 c 18.08978,-0.01437 22.80417,0.173392 30.09312,1.198589 4.57283,0.643173 6.47813,1.314995 7.33278,2.585591 0.77085,1.146008 0.76221,1.25509 -0.16816,2.124186 -3.14661,2.939391 -21.72074,6.634091 -33.35104,6.634091 -3.61095,0 -6.43034,0.53773 -8.73859,1.66665 -2.22458,1.088 -1.61697,1.77658 2.49228,2.82439 2.06477,0.52649 8.16512,1.47374 11.26606,1.74936 1.0914,0.097 2.16297,0.28726 2.38125,0.42277 0.27269,0.1693 0.1071,0.20477 -0.52917,0.11335 -0.50932,-0.0732 -1.75948,-0.20709 -2.77812,-0.29758 -2.97265,-0.26409 -8.81362,-1.1634 -11.18017,-1.72139 -5.62879,-1.32714 -5.98042,-3.0132 -0.98436,-4.71992 2.51637,-0.85962 2.78989,-0.89565 8.44092,-1.11196 8.62519,-0.33015 15.36091,-1.26579 22.86387,-3.175934 5.81801,-1.481185 8.88469,-2.90395 8.7218,-4.046424 -0.2372,-1.663742 -5.92263,-2.75477 -17.41102,-3.341156 -5.56754,-0.284176 -32.58307,-0.365461 -34.17129,-0.102817 l -0.96607,0.159761 0.04,8.634725 c 0.0422,9.102235 -0.10915,10.775825 -1.20555,13.330885 -0.41951,0.97764 -0.88445,1.48712 -2.09446,2.29514 -5.10869,3.41145 -24.40835,8.53528 -37.00892,9.82543 -3.55618,0.36411 -4.3327,0.22045 -6.84624,-1.26665 -2.01198,-1.19035 -10.815402,-7.77292 -17.144886,-12.81971 l -4.539595,-3.61963 -0.413707,-1.93662 c -0.639972,-2.9958 -1.2905,-8.387496 -1.116783,-9.256088 0.08594,-0.429681 0.009,-1.263029 -0.170958,-1.851883 l -0.327205,-1.070644 -1.719791,0.170553 c -2.858376,0.283464 -8.034602,1.419273 -11.047927,2.424226 -3.797324,1.266421 -7.632336,3.11548 -7.801245,3.761389 -0.328726,1.257047 0.711897,1.861617 6.169867,3.584487 2.121435,0.66966 4.056201,1.4375 4.299479,1.70632 1.509335,1.6678 -0.275199,2.9388 -10.627507,7.56927 -5.849063,2.61622 -8.609532,4.10635 -8.871462,4.78893 -0.08371,0.21814 -0.04179,0.68702 0.09316,1.04194 0.505557,1.32971 2.457495,2.08053 7.28043,2.80041 4.51952,0.67459 5.809935,0.99109 6.611516,1.62161 0.773657,0.60856 0.841619,1.29099 0.222647,2.23566 -0.602831,0.92004 -2.6932,2.48199 -3.321658,2.48199 -0.380849,0 -0.133277,-0.34654 0.96409,-1.34947 z m 54.27476,-3.29483 c 13.59998,-2.33555 27.84447,-6.71827 30.515,-9.3888 1.82361,-1.82361 2.41086,-7.11326 1.93143,-17.397258 -0.42365,-9.087424 -1.67235,-21.646153 -2.45724,-24.713562 -0.4926,-1.925114 -2.84627,-3.61798 -11.87908,-8.543981 -6.5842,-3.590657 -8.36143,-4.631469 -10.18646,-5.96557 -2.72405,-1.991274 -4.46865,-2.525457 -9.525,-2.916462 -8.27334,-0.639775 -23.343018,1.379011 -29.524196,3.955161 -4.001948,1.667906 -4.239821,2.353974 -4.408014,12.71348 -0.161833,9.967898 0.478774,20.855598 1.791195,30.442952 0.814012,5.94642 0.261569,5.09383 6.541334,10.09535 9.07896,7.23094 13.293261,10.36117 16.074681,11.93968 1.29,0.7321 1.39568,0.74714 4.24718,0.60449 1.60834,-0.0805 4.70397,-0.45192 6.87917,-0.82548 z"
         id="path27"
         inkscape:connector-curvature="0"
         inkscape:export-xdpi="168.96001"
         inkscape:export-ydpi="168.96001" />
      <path
         style="fill:#265b5c;stroke-width:0.26458335"
         d="m 101.10863,145.74999 c -5.804252,-0.3201 -9.555909,-1.08775 -10.815868,-2.21311 -0.533162,-0.47621 -1.354963,-1.93533 -1.354963,-2.40576 0,-0.39171 0.48066,-0.0608 0.740698,0.50989 1.048187,2.30052 8.691444,3.23415 24.262433,2.96366 15.78916,-0.27428 31.34208,-1.69662 38.31788,-3.50423 2.0109,-0.52108 2.99138,-1.00926 4.05718,-2.02005 l 0.83547,-0.79236 0.30781,0.57514 c 0.70923,1.32521 -1.36827,2.732 -5.41834,3.66906 -10.38785,2.40341 -36.16669,4.03205 -50.9323,3.21776 z m -48.683334,-5.80596 c -1.538709,-0.29193 -2.65375,-0.73102 -3.268816,-1.28722 -0.597433,-0.54026 -1.493684,-2.24522 -1.493684,-2.84148 0,-0.75464 0.79483,-2.14613 1.803487,-3.15734 1.400026,-1.40356 2.252574,-1.79645 1.134885,-0.523 -1.159403,1.32098 -1.965181,3.13446 -1.733576,3.90157 0.322386,1.0678 1.511694,2.04911 3.012047,2.48527 1.14219,0.33205 2.191914,0.39136 4.902143,0.277 3.75038,-0.15826 4.356327,-0.27187 17.074766,-3.20136 16.863608,-3.88428 24.647674,-5.21352 25.896921,-4.42226 0.661531,0.41901 0.02247,0.81928 -1.308026,0.81928 -2.9931,0 -10.784545,1.48684 -25.647229,4.89424 -5.31151,1.21771 -10.654839,2.401 -11.874063,2.62954 -2.755472,0.5165 -6.920775,0.72516 -8.498855,0.42576 z m 93.262084,-10.07736 c -0.2864,-0.90238 0.13617,-2.55574 0.93508,-3.65861 1.52949,-2.1114 5.61489,-3.40069 12.69451,-4.00619 18.15659,-1.55289 24.46878,-2.57846 29.27064,-4.75573 3.97566,-1.80265 5.33399,-4.06334 3.64647,-6.06885 -0.50557,-0.60082 -0.5802,-0.81405 -0.28494,-0.81405 0.60764,0 1.94861,1.47056 2.29327,2.51487 1.04654,3.17104 -4.36864,6.27229 -13.82637,7.9183 -2.36702,0.41195 -13.07921,1.58035 -17.13032,1.86843 -8.56322,0.60895 -12.84251,1.58647 -15.02671,3.43255 -1.01029,0.85389 -1.90662,2.46997 -1.90662,3.4376 0,0.80553 -0.42446,0.88957 -0.66501,0.13168 z m -83.249478,-4.42214 c 1.223254,-1.73046 0.671967,-2.02879 -5.467284,-2.95862 -2.04108,-0.30914 -4.317161,-0.74207 -5.057959,-0.96206 -1.709632,-0.50771 -3.095871,-1.71639 -3.494507,-3.04692 -0.272178,-0.90845 -0.248634,-1.10044 0.195168,-1.59156 0.476754,-0.52758 2.521269,-1.7185 3.679685,-2.1434 0.596567,-0.21882 0.710505,-0.30374 -1.60417,1.1957 -1.326938,0.85959 -1.615371,1.4974 -1.166846,2.58024 0.638131,1.54058 2.636994,2.26509 8.724141,3.16214 4.098923,0.60406 5.435408,1.05022 5.706737,1.9051 0.193112,0.60845 -0.468806,1.63825 -1.476768,2.29753 l -0.647136,0.42327 z m 41.448858,-1.44911 c -4.294169,-2.39315 -21.87954,-16.01636 -22.387706,-17.34353 -0.327372,-0.85498 -1.157301,-6.4323 -1.562323,-10.499146 -0.158908,-1.595618 -0.394523,-3.02836 -0.523586,-3.183875 -0.129064,-0.155511 -0.148485,-0.422185 -0.04316,-0.592611 0.105328,-0.170423 0.02944,-2.369084 -0.168637,-4.885917 -0.198078,-2.516831 -0.380362,-8.862307 -0.405077,-14.101057 -0.05952,-12.615811 0.205356,-14.065466 2.853497,-15.617381 6.477193,-3.795888 28.909252,-6.40412 37.430672,-4.352158 1.88613,0.45418 2.67996,0.836337 5.15938,2.483781 1.61165,1.070857 5.96637,3.582165 9.67715,5.580684 7.55655,4.069743 11.56273,6.595214 12.58212,7.931698 0.9144,1.198847 1.39742,4.453862 2.86683,19.31921 0.38777,3.922916 0.50922,6.989567 0.51344,12.964582 0.007,10.25175 -0.53848,11.97447 -4.45707,14.07018 -6.50592,3.47943 -27.3799,8.61002 -36.50845,8.97336 l -3.43958,0.1369 z m 12.17083,-0.83954 c 10.66005,-1.85159 22.61672,-5.18716 27.82469,-7.7623 4.32375,-2.13793 4.73067,-3.42819 4.69425,-14.8845 -0.0155,-4.884736 -0.18972,-9.686196 -0.46554,-12.832295 -0.54308,-6.194391 -1.69513,-15.582859 -2.05091,-16.713649 -0.55569,-1.766129 -3.27126,-3.705605 -11.21707,-8.01132 -6.54509,-3.546685 -8.23871,-4.535996 -11.1125,-6.491254 -2.6533,-1.805243 -4.21416,-2.350508 -7.9375,-2.772863 -8.11711,-0.920758 -24.226261,1.055714 -31.129817,3.819397 -3.682344,1.474144 -4.24134,2.504019 -4.743064,8.738438 -0.577197,7.172289 0.519641,26.892444 2.023475,36.380206 0.702649,4.43304 0.296762,3.87389 6.268924,8.63607 7.075541,5.64203 13.785372,10.6617 15.854682,11.86101 l 1.67163,0.96883 3.30729,-0.14619 c 1.81901,-0.0804 4.97417,-0.43571 7.01146,-0.78958 z M 66.183497,108.23426 c 0.363728,-0.24703 1.078103,-0.83717 1.5875,-1.31142 0.904873,-0.84245 0.914113,-0.87153 0.401751,-1.26469 -0.288434,-0.22133 -2.074371,-0.88893 -3.96875,-1.48355 -4.456067,-1.3987 -5.855105,-2.10916 -6.398881,-3.24947 -0.763194,-1.600432 -0.425569,-2.03251 2.750798,-3.52036 2.625614,-1.229873 6.05492,-2.465228 6.780065,-2.442416 0.166572,0.0052 -1.125891,0.586782 -2.872141,1.292318 -5.134097,2.07432 -6.478301,3.016538 -6.08252,4.263528 0.259229,0.81676 2.070331,1.68751 6.233159,2.99679 5.351623,1.68319 5.879107,2.4556 2.909049,4.25981 -1.555935,0.94518 -2.564274,1.29091 -1.34003,0.45946 z m 93.574443,-2.60991 c -0.33318,-0.33318 -0.17583,-1.06501 0.32679,-1.51988 0.27675,-0.25045 1.37807,-0.76005 2.4474,-1.13245 1.68124,-0.58549 2.62418,-0.70766 6.9713,-0.90319 13.26741,-0.59674 26.34273,-3.016301 31.71353,-5.868509 2.80989,-1.492218 2.57164,-2.62314 -0.80414,-3.817051 l -1.80522,-0.638456 1.43199,0.141417 c 1.88529,0.18618 3.72146,1.120685 4.34548,2.211602 0.44973,0.786226 0.45801,0.920748 0.0912,1.480635 -1.06776,1.629601 -7.94863,3.859874 -16.39045,5.312582 -5.94637,1.02327 -10.35973,1.48235 -16.46568,1.71277 -5.01204,0.18913 -5.77461,0.28079 -7.78564,0.93577 -1.44207,0.46967 -2.50045,0.99716 -2.99692,1.49363 -0.84918,0.84918 -0.83133,0.83941 -1.0796,0.59113 z M 68.168006,94.688243 c 0.291041,-0.125066 0.70776,-0.227391 0.926041,-0.227391 0.250158,0 0.201253,0.08406 -0.132291,0.227391 -0.291042,0.125066 -0.707761,0.227391 -0.926042,0.227391 -0.250158,0 -0.201252,-0.08406 0.132292,-0.227391 z"
         id="path25"
         inkscape:connector-curvature="0"
         inkscape:export-xdpi="168.96001"
         inkscape:export-ydpi="168.96001" />
      <path
         style="fill:#231513;stroke-width:0.26458335;fill-opacity:1"
         d="m 104.28363,145.74416 c -7.141678,-0.26886 -12.251735,-1.07424 -13.613771,-2.14562 -1.010518,-0.79487 -0.81098,-1.10149 0.336016,-0.51633 2.778863,1.41766 10.329745,2.00601 22.935055,1.78704 10.27507,-0.17849 17.98161,-0.65051 26.72291,-1.63675 9.29612,-1.04884 14.18322,-2.24032 15.93347,-3.88459 0.54306,-0.51019 0.60299,-0.51755 0.76551,-0.094 0.27848,0.72571 -0.90553,1.6798 -2.97981,2.40116 -3.62662,1.26121 -13.975,2.68763 -23.90563,3.29515 -2.54661,0.15579 -5.52317,0.39562 -6.61458,0.53294 -2.70556,0.34044 -13.6087,0.48578 -19.57917,0.26101 z m -52.415384,-6.17571 c -1.688153,-0.36334 -2.72261,-0.95563 -3.177417,-1.81927 -0.172426,-0.32742 -0.438564,-0.67659 -0.591418,-0.77594 -0.473051,-0.30745 -0.258471,-2.00727 0.351241,-2.78239 l 0.57617,-0.73248 -0.213313,0.78942 c -0.539615,1.99697 0.01921,3.18468 1.944425,4.13261 1.16828,0.57523 1.589764,0.62473 5.239238,0.61529 2.216741,-0.006 4.669553,-0.16172 5.55625,-0.35335 0.873125,-0.18871 5.933282,-1.33722 11.244792,-2.55224 17.94362,-4.10467 26.722919,-5.62405 26.722919,-4.62477 0,0.14552 -0.477034,0.26458 -1.060075,0.26458 -2.817664,0 -11.103219,1.59947 -26.096191,5.03768 -13.984519,3.20696 -16.813561,3.59355 -20.496621,2.80086 z m 93.960784,-10.8151 c 0.0117,-0.6667 1.00652,-2.46683 1.74676,-3.16082 1.87969,-1.76223 5.48875,-2.60099 14.5193,-3.37432 16.52819,-1.41539 22.03183,-2.39064 27.0295,-4.78966 1.4707,-0.70598 2.4676,-1.3959 3.12801,-2.16482 0.8631,-1.0049 0.96001,-1.26396 0.88405,-2.36333 -0.0991,-1.43481 0.34568,-1.32366 0.85286,0.21311 0.92831,2.8128 -2.94722,5.3496 -10.86004,7.10865 -3.58281,0.79647 -12.44462,1.88862 -19.31458,2.38036 -6.90786,0.49446 -11.15299,1.18815 -13.5445,2.21327 -1.5429,0.66136 -3.01994,1.96823 -3.67439,3.25105 -0.53416,1.04705 -0.77713,1.26452 -0.76697,0.68651 z m -40.00751,-4.34793 c 0.191,-0.0764 0.4192,-0.067 0.50712,0.0209 0.0879,0.0879 -0.0683,0.15045 -0.34726,0.13896 -0.30823,-0.0127 -0.37092,-0.0754 -0.15986,-0.15985 z M 63.00863,123.7575 c -0.413179,-0.5392 -1.45359,-0.77976 -7.736422,-1.78879 -1.849872,-0.29709 -3.615442,-0.75151 -4.365243,-1.12352 -1.902416,-0.94386 -3.070029,-3.08834 -2.113676,-3.88204 0.263141,-0.21839 0.336742,-0.0461 0.336742,0.78843 0,2.06553 2.36575,3.25197 8.057766,4.04102 1.527968,0.21181 3.401834,0.51987 4.164146,0.68457 1.553138,0.33556 2.739994,1.12297 2.318146,1.53796 -0.1743,0.17146 -0.400009,0.0836 -0.661459,-0.25763 z m 39.14439,-1.2426 c -3.470143,-2.26809 -7.854927,-5.53819 -14.836734,-11.06497 -6.450441,-5.10615 -5.774896,-3.75528 -6.992898,-13.983562 -1.16626,-9.793774 -1.824752,-28.696243 -1.182357,-33.940324 0.479489,-3.914219 0.940819,-4.696332 3.52003,-5.967681 1.187196,-0.585194 3.537654,-1.386566 5.556251,-1.894364 3.297793,-0.829592 10.397681,-2.021415 11.655756,-1.956593 0.315762,0.01627 -0.890151,0.252221 -2.679798,0.524337 -6.790428,1.032488 -12.491803,2.627662 -14.844851,4.153407 -2.331784,1.511957 -2.806811,4.048201 -2.760655,14.739551 0.04124,9.552549 0.940832,22.242955 2.091257,29.501039 0.722595,4.55888 0.239469,3.90316 6.666344,9.04784 4.884447,3.90998 9.747774,7.6588 13.192095,10.16893 0.45413,0.33096 1.52569,1.02384 2.38125,1.53973 0.85555,0.51589 1.43021,0.93828 1.27702,0.93866 -0.15319,2.6e-4 -1.52241,-0.81233 -3.04271,-1.806 z m 34.90788,-4.14017 c 5.08976,-1.72671 8.34563,-3.25231 9.65514,-4.52409 1.85905,-1.80549 2.43636,-5.84991 2.18763,-15.325939 -0.30228,-11.516347 -1.91899,-26.697974 -3.03492,-28.499232 -1.00925,-1.629054 -3.58917,-3.32794 -12.42626,-8.182732 -3.44982,-1.895212 -6.39146,-3.574726 -6.53698,-3.732252 -0.14552,-0.157527 0.2712,0.01644 0.92604,0.386581 0.65484,0.370146 3.81,2.0683 7.01146,3.773674 6.21758,3.312021 10.73849,6.172025 11.59643,7.336101 1.63688,2.220946 3.88106,29.210548 3.10852,37.384529 -0.56564,5.98485 -1.16061,7.05812 -4.91537,8.86689 -1.96827,0.94817 -9.31272,3.48086 -11.1125,3.83208 -0.43656,0.0852 1.1568,-0.50684 3.54081,-1.31561 z M 68.422285,105.52477 c -0.401894,-0.44408 -0.412863,-0.51126 -0.06146,-0.37642 0.235251,0.0903 0.49273,0.33353 0.572174,0.54056 0.197675,0.51513 0.06561,0.47269 -0.510709,-0.16414 z m 91.423855,-0.64397 c 0,-0.53615 0.87738,-1.05222 2.91041,-1.71187 3.02422,-0.98125 4.10422,-0.91262 1.24307,0.079 -1.42636,0.49435 -2.86278,1.15191 -3.19205,1.46124 -0.70464,0.66198 -0.96143,0.70782 -0.96143,0.17164 z M 59.645393,102.29756 c -0.612853,-0.30797 -1.183524,-0.74039 -1.268157,-0.96094 -0.132808,-0.34609 -0.08892,-0.34394 0.320529,0.0157 0.260924,0.22919 0.950657,0.66374 1.53274,0.96566 0.582084,0.30193 0.939271,0.54683 0.79375,0.54424 -0.145521,-0.003 -0.766009,-0.25669 -1.378862,-0.56466 z m 117.613637,-0.38172 c 0.19099,-0.0764 0.4192,-0.067 0.50712,0.0209 0.0879,0.0879 -0.0684,0.15046 -0.34727,0.13897 -0.30822,-0.0127 -0.37092,-0.0754 -0.15985,-0.15985 z m 2.10013,-0.25908 c 0.1819,-0.0734 0.47956,-0.0734 0.66146,0 0.1819,0.0734 0.0331,0.13346 -0.33073,0.13346 -0.3638,0 -0.51263,-0.0601 -0.33073,-0.13346 z m 2.3151,-0.22911 c 0.14552,-0.0539 1.8124,-0.35044 3.70417,-0.659 9.38456,-1.530669 16.538,-3.831621 17.77328,-5.716904 0.4243,-0.64757 0.42552,-0.745035 0.0181,-1.454827 -0.24013,-0.418418 -0.37269,-0.760759 -0.29457,-0.760759 0.23852,0 1.95002,1.845402 1.95002,2.10258 0,1.212575 -5.24523,3.303069 -12.02508,4.79261 -4.27458,0.93913 -12.44521,2.18485 -11.12597,1.6963 z M 57.716963,99.907329 c 0,-0.379465 0.123835,-0.766474 0.275189,-0.860015 0.180496,-0.111553 0.21321,0.08792 0.09507,0.579697 -0.243527,1.013729 -0.37026,1.109679 -0.37026,0.280318 z M 125.8316,57.499688 c -0.49319,-0.395127 -0.48994,-0.400012 0.0817,-0.122983 0.32742,0.158669 0.59531,0.343831 0.59531,0.411471 0,0.202465 -0.13721,0.143997 -0.67703,-0.288488 z m -24.78603,-4.008992 c 0.32912,-0.06329 0.80537,-0.06088 1.05834,0.0053 0.25296,0.06622 -0.0163,0.118004 -0.5984,0.115067 -0.58209,-0.0029 -0.78906,-0.05712 -0.45994,-0.120406 z m 2.97343,-0.372217 c 9e-5,-0.309758 6.12151,-0.537523 9.41054,-0.350146 1.81783,0.103563 3.25567,0.237778 3.19519,0.298256 -0.17853,0.178527 -12.60578,0.229682 -12.60573,0.05189 z"
         id="path23"
         inkscape:connector-curvature="0"
         inkscape:export-xdpi="168.96001"
         inkscape:export-ydpi="168.96001" />
      <text
         xml:space="preserve"
         style="font-style:normal;font-weight:normal;font-size:17.63888741px;line-height:1.25;font-family:sans-serif;letter-spacing:0px;word-spacing:0px;fill:#000000;fill-opacity:1;stroke:none;stroke-width:0.26458332"
         x="77.863091"
         y="158.28275"
         id="text4567"
         inkscape:export-xdpi="168.96001"
         inkscape:export-ydpi="168.96001"><tspan
           sodipodi:role="line"
           id="tspan4565"
           x="77.863091"
           y="158.28275"
           style="font-style:normal;font-variant:normal;font-weight:normal;font-stretch:normal;font-family:'Latin Modern Mono Caps';-inkscape-font-specification:'Latin Modern Mono Caps';opacity:1;stroke-width:0.26458332">Solidify</tspan></text>
    </g>
  </g>
</svg>
